<?xml version="1.0" encoding="UTF-8" standalone="no"?>
<!-- Generator: Adobe Illustrator 16.0.0, SVG Export Plug-In . SVG Version: 6.00 Build 0)  -->

<svg
   xmlns:dc="http://purl.org/dc/elements/1.1/"
   xmlns:cc="http://creativecommons.org/ns#"
   xmlns:rdf="http://www.w3.org/1999/02/22-rdf-syntax-ns#"
   xmlns:svg="http://www.w3.org/2000/svg"
   xmlns="http://www.w3.org/2000/svg"
   xmlns:sodipodi="http://sodipodi.sourceforge.net/DTD/sodipodi-0.dtd"
   xmlns:inkscape="http://www.inkscape.org/namespaces/inkscape"
   version="1.1"
   id="Calque_1"
   x="0px"
   y="0px"
   width="587.23926"
   height="555.58215"
   viewBox="0 0 587.23926 555.58215"
   enable-background="new 0 0 600 600"
   xml:space="preserve"
   sodipodi:docname="Delhi map for WLM-In.svg"
   inkscape:version="0.92.5 (2060ec1f9f, 2020-04-08)"><metadata
   id="metadata4608"><rdf:RDF><cc:Work
       rdf:about=""><dc:format>image/svg+xml</dc:format><dc:type
         rdf:resource="http://purl.org/dc/dcmitype/StillImage" /><dc:title></dc:title></cc:Work></rdf:RDF></metadata><defs
   id="defs4606" /><sodipodi:namedview
   pagecolor="#ffffff"
   bordercolor="#666666"
   borderopacity="1"
   objecttolerance="10"
   gridtolerance="10"
   guidetolerance="10"
   inkscape:pageopacity="0"
   inkscape:pageshadow="2"
   inkscape:window-width="1280"
   inkscape:window-height="1043"
   id="namedview4604"
   showgrid="false"
   inkscape:zoom="0.78666667"
   inkscape:cx="391.92708"
   inkscape:cy="298.75721"
   inkscape:window-x="3200"
   inkscape:window-y="0"
   inkscape:window-maximized="0"
   inkscape:current-layer="Calque_1" />
<polygon
   stroke-miterlimit="10"
   points="454.373,134.955 448.776,143.164 454.373,152.866 459.97,174.508 459.97,214.806 459.97,244.657 471.91,272.549 465.94,277.037 442.806,278.437 442.806,273.015 433.478,273.015 439.447,281.06 436.09,297.687 426.762,301.406 411.09,297.687 406.238,305.127 385.717,324.508 372.656,345.402 358.104,318.537 351.015,318.537 351.015,324.508 339.074,324.508 333.104,312.566 333.104,297.687 339.074,281.06 333.104,275.813 339.074,269.284 319.299,263.313 312.955,275.813 289.075,286.306 280.492,286.306 248.03,301.373 240.567,294 240.567,278.612 221.537,273.015 204,273.015 180.119,287.94 168.552,287.94 133.664,269.284 135.25,249.881 144.299,231.224 126.201,217.791 138.328,195.403 131.239,190.179 136.089,181.224 121.164,167.791 131.239,152.866 126.388,143.164 126.388,126.747 115.94,115.552 126.388,95.217 136.089,100.627 140.567,89.806 148.03,85.702 156.985,89.806 180.119,69.284 195.791,69.284 212.209,69.284 230.866,77.493 240.567,56.97 255.493,34.582 267.433,39.433 275.269,32.717 273.403,27.866 277.134,23.015 283.851,23.015 289.075,32.717 312.955,36.448 325.642,50.067 333.104,43.165 345.045,43.165 351.015,56.97 351.015,69.284 365.194,69.284 380.119,51.373 391.312,46.896 430.865,51.373 436.09,62.567 436.09,69.284 442.806,85.702 436.09,93.911 436.09,107.343 417.433,102.866 417.433,121.149 426.762,130.478 448.776,130.478 "
   id="polygon4485"
   style="fill:#a30000;fill-opacity:1;stroke:#a30000;stroke-miterlimit:10;stroke-opacity:1"
   transform="translate(3.5080465,-22.515)" />
<polygon
   stroke-miterlimit="10"
   points="358.406,318.561 372.958,345.426 374.451,355.873 371.466,364.828 366.242,376.77 357.287,376.77 355.048,383.857 357.287,391.693 366.242,402.143 366.242,406.246 366.242,413.336 357.287,410.352 352.81,413.336 343.854,410.352 336.392,402.143 329.488,406.619 322.958,402.143 287.23,396.172 280.888,387.217 276.689,387.217 276.689,380.5 285.085,380.5 289.377,364.828 333.406,312.59 339.376,324.529 351.316,324.529 351.316,318.561 "
   id="polygon4487"
   style="fill:#a30000;fill-opacity:1;stroke:#a30000;stroke-miterlimit:10;stroke-opacity:1"
   transform="translate(3.5080465,-22.515)" />
<polyline
   stroke-miterlimit="10"
   points="1.761,391.672 6.239,402.119 12.209,406.598   25.642,413.312 30.866,422.082 35.343,424.134 45.045,432.902 49.522,437.566 45.045,456.224 54,460.328 62.209,460.328   66.687,452.119 74.149,451.466 83.851,448.201 93.552,454.73 100.269,452.119 107.731,452.119 129.373,457.343 139.075,452.119   161.527,440.925 174.335,446.896 180.119,440.925 196.537,444.283 201.015,437.566 186.089,424.134 192.06,420.029 201.015,420.029   221.537,428.238 240.567,437.566 237.582,444.283 254,452.119 260.716,446.896 264.261,446.896 269.672,441.672 295,446.896   295,457.343 322.656,467.045 316.127,490.925 312.955,496.521 316.127,502.119 325.922,514.806 329.188,526.373 339.821,534.955   358.104,536.82 368.553,544.283 374.149,549.881 374.149,561.82 383.104,564.806 385.717,578 385.717,574.508 395.978,567.791   402.881,567.791 418.926,567.791 448.776,561.82 462.955,549.881 471.91,549.881 477.508,538.688 471.91,534.955 471.91,517.791   462.955,511.82 454.373,511.82 454.373,502.119 462.955,490.925 471.91,484.209 500.269,478.238 500.269,473.761 513.701,467.045   530.119,467.045 536.09,473.761 542.06,478.238 550.269,478.238 560.344,473.761 583.104,446.896 570.418,428.238 550.269,411.82   542.06,409.77 530.119,387.193 530.119,376.746 520.418,369.423 495.045,350.627 489.821,314.816 483.104,286.062 471.91,272.549   465.94,277.037 442.806,278.437 442.806,273.015 433.478,273.015 439.447,281.06 436.09,297.687 442.806,306.971 462.955,318.537   462.955,345.402 462.955,355.852 442.806,360.328 442.806,368.07 432.358,370.775 426.388,370.775 429.373,376.746 435.344,376.746   429.373,391.672 413.701,391.672 413.701,383.836 392.06,380.291 374.149,355.852 371.164,364.807 365.94,376.746 356.985,376.746   354.746,383.836 356.985,391.672 365.94,402.119 365.94,406.225 365.94,413.312 356.985,410.328 352.508,413.312 343.553,410.328   336.09,402.119 329.188,406.598 322.656,402.119 286.929,396.148 280.586,387.193 276.388,387.193 276.388,380.479 284.783,380.479   289.075,364.807 333.104,312.566 333.104,301.373 339.074,281.06 333.104,275.813 339.074,269.284 319.299,263.313 312.955,275.813   289.075,286.306 280.492,286.306 248.03,301.373 240.567,294 240.567,278.612 221.537,273.015 204,273.015 180.119,287.94   168.552,287.94 161.527,284.184 133.664,269.284 118.552,267.828 107.731,272.445 98.216,293.5 118.552,307.381 115.94,315.553   107.731,324.508 88.701,312.566 83.851,312.566 70.418,318.537 58.104,309.619 49.522,312.566 40.194,338.688 35.343,341.672   35.343,350.627 28.254,364.199 6.239,364.807 -1.97,370.775 1.761,370.775 1.761,380.291 1.761,387.754 "
   id="polyline4489"
   style="fill:#a30000;fill-opacity:1;stroke:#a30000;stroke-miterlimit:10;stroke-opacity:1"
   transform="translate(3.5080465,-22.515)" />
<polygon
   stroke-miterlimit="10"
   points="411.392,297.709 427.062,301.43 436.392,297.709 443.107,306.993 463.257,318.561 463.257,345.426 463.257,355.873 443.107,360.352 443.107,368.093 432.66,370.798 426.689,370.798 429.675,376.77 435.646,376.77 429.675,391.693 414.003,391.693 414.003,383.857 392.361,380.312 374.451,355.873 372.958,345.426 386.019,324.529 406.54,305.148 "
   id="polygon4491"
   style="fill:#a30000;fill-opacity:1;stroke:#a30000;stroke-miterlimit:10;stroke-opacity:1"
   transform="translate(3.5080465,-22.515)" />
<polyline
   stroke-miterlimit="10"
   points="553.667,293.5 556,286.333 556,274 558.667,268   558.667,259 563.75,256.667 569.667,255 569.667,249.333 566.334,241.333 561.167,233 561.167,222.833 566.334,215.667 556,217.083   551.334,215.667 536.667,215.667 530,218.5 530,221.333 526,224.333 518.167,221.333 517,215.667 519.334,211.667 519.334,204.333   501.334,189 496.334,190.167 487.667,191.333 481.834,189 479.667,181.667 484,173 479.667,167 470,167 456.51,161.127   459.97,174.508 459.97,244.657 471.91,272.549 483.104,286.062 489.821,314.816 495.045,350.627 530.119,376.746 531.334,368.334   540.667,359 546,349.334 561.167,349.334 566.334,345.402 575.667,343 579,337 580.334,325.334 577.667,319.334 569.667,312.59   553.667,301.334 553.667,292 "
   id="polyline4493"
   style="fill:#a30000;fill-opacity:1;stroke:#a30000;stroke-miterlimit:10;stroke-opacity:1"
   transform="translate(3.5080465,-22.515)" />






</svg>